<mxfile host="65bd71144e">
    <diagram id="sxdL-SIrUghaJEa_GAe_" name="Page-1">
        <mxGraphModel dx="820" dy="452" grid="1" gridSize="10" guides="1" tooltips="1" connect="1" arrows="1" fold="1" page="1" pageScale="1" pageWidth="827" pageHeight="1169" math="0" shadow="0">
            <root>
                <mxCell id="0"/>
                <mxCell id="1" parent="0"/>
                <mxCell id="6" value="" style="edgeStyle=none;html=1;" edge="1" parent="1" source="2" target="5">
                    <mxGeometry relative="1" as="geometry"/>
                </mxCell>
                <mxCell id="2" value="Start" style="rounded=1;whiteSpace=wrap;html=1;fontSize=16;fillColor=#0050ef;fontColor=#ffffff;strokeColor=#001DBC;" parent="1" vertex="1">
                    <mxGeometry x="354" y="40" width="120" height="60" as="geometry"/>
                </mxCell>
                <mxCell id="8" value="" style="edgeStyle=none;html=1;fontSize=16;" edge="1" parent="1" source="5" target="7">
                    <mxGeometry relative="1" as="geometry"/>
                </mxCell>
                <mxCell id="5" value="int[ ] words;&lt;br&gt;int[ ] newWords;&lt;br&gt;int index = 0;&lt;br&gt;int i = 0;&lt;br&gt;charAmount = 3;" style="rounded=0;whiteSpace=wrap;html=1;fontSize=16;fillColor=#6d8764;fontColor=#ffffff;strokeColor=#3A5431;" vertex="1" parent="1">
                    <mxGeometry x="296" y="150" width="236" height="130" as="geometry"/>
                </mxCell>
                <mxCell id="7" value="i &amp;lt; words.Lenght" style="rhombus;whiteSpace=wrap;html=1;fontSize=16;rounded=0;fillColor=#e3c800;strokeColor=#B09500;fontColor=#000000;" vertex="1" parent="1">
                    <mxGeometry x="294" y="330" width="239" height="80" as="geometry"/>
                </mxCell>
                <mxCell id="9" value="" style="endArrow=classic;html=1;fontSize=16;exitX=0.5;exitY=1;exitDx=0;exitDy=0;entryX=0.5;entryY=0;entryDx=0;entryDy=0;" edge="1" parent="1" source="7" target="12">
                    <mxGeometry relative="1" as="geometry">
                        <mxPoint x="220" y="540" as="sourcePoint"/>
                        <mxPoint x="414" y="470" as="targetPoint"/>
                    </mxGeometry>
                </mxCell>
                <mxCell id="10" value="YES" style="edgeLabel;resizable=0;html=1;align=center;verticalAlign=middle;fontSize=16;" connectable="0" vertex="1" parent="9">
                    <mxGeometry relative="1" as="geometry"/>
                </mxCell>
                <mxCell id="12" value="words[ i ].Length &amp;lt; charAmount" style="rhombus;whiteSpace=wrap;html=1;fontSize=16;rounded=0;fillColor=#e3c800;fontColor=#000000;strokeColor=#B09500;" vertex="1" parent="1">
                    <mxGeometry x="276.25" y="470" width="275.5" height="100" as="geometry"/>
                </mxCell>
                <mxCell id="14" value="" style="endArrow=classic;html=1;fontSize=16;exitX=0.5;exitY=1;exitDx=0;exitDy=0;" edge="1" parent="1" source="12">
                    <mxGeometry relative="1" as="geometry">
                        <mxPoint x="270" y="700" as="sourcePoint"/>
                        <mxPoint x="414" y="630" as="targetPoint"/>
                    </mxGeometry>
                </mxCell>
                <mxCell id="15" value="YES" style="edgeLabel;resizable=0;html=1;align=center;verticalAlign=middle;fontSize=16;" connectable="0" vertex="1" parent="14">
                    <mxGeometry relative="1" as="geometry"/>
                </mxCell>
                <mxCell id="16" value="&lt;font style=&quot;font-size: 16px&quot;&gt;newWords[ index ] = words[ i ]&lt;/font&gt;" style="whiteSpace=wrap;html=1;fontSize=23;fillColor=#6d8764;fontColor=#ffffff;strokeColor=#3A5431;" vertex="1" parent="1">
                    <mxGeometry x="291" y="630" width="246" height="60" as="geometry"/>
                </mxCell>
                <mxCell id="17" value="i = i + i" style="rhombus;whiteSpace=wrap;html=1;fontSize=16;fillColor=#e3c800;fontColor=#000000;strokeColor=#B09500;" vertex="1" parent="1">
                    <mxGeometry x="50" y="480" width="160" height="80" as="geometry"/>
                </mxCell>
                <mxCell id="18" value="" style="endArrow=classic;html=1;fontSize=16;exitX=0;exitY=0.5;exitDx=0;exitDy=0;" edge="1" parent="1" source="12" target="17">
                    <mxGeometry relative="1" as="geometry">
                        <mxPoint x="110" y="660" as="sourcePoint"/>
                        <mxPoint x="210" y="660" as="targetPoint"/>
                    </mxGeometry>
                </mxCell>
                <mxCell id="19" value="NO" style="edgeLabel;resizable=0;html=1;align=center;verticalAlign=middle;fontSize=16;" connectable="0" vertex="1" parent="18">
                    <mxGeometry relative="1" as="geometry"/>
                </mxCell>
                <mxCell id="20" value="" style="endArrow=classic;html=1;fontSize=16;exitX=0.5;exitY=0;exitDx=0;exitDy=0;" edge="1" parent="1" source="17">
                    <mxGeometry width="50" height="50" relative="1" as="geometry">
                        <mxPoint x="200" y="430" as="sourcePoint"/>
                        <mxPoint x="414" y="300" as="targetPoint"/>
                        <Array as="points">
                            <mxPoint x="130" y="320"/>
                            <mxPoint x="130" y="300"/>
                        </Array>
                    </mxGeometry>
                </mxCell>
                <mxCell id="21" value="" style="endArrow=classic;html=1;fontSize=16;exitX=0;exitY=0.5;exitDx=0;exitDy=0;entryX=0.5;entryY=1;entryDx=0;entryDy=0;" edge="1" parent="1" source="16" target="17">
                    <mxGeometry width="50" height="50" relative="1" as="geometry">
                        <mxPoint x="170" y="690" as="sourcePoint"/>
                        <mxPoint x="220" y="640" as="targetPoint"/>
                        <Array as="points">
                            <mxPoint x="130" y="660"/>
                        </Array>
                    </mxGeometry>
                </mxCell>
                <mxCell id="22" value="" style="endArrow=classic;html=1;fontSize=16;exitX=1;exitY=0.5;exitDx=0;exitDy=0;entryX=1;entryY=0.5;entryDx=0;entryDy=0;" edge="1" parent="1" source="7" target="24">
                    <mxGeometry relative="1" as="geometry">
                        <mxPoint x="560" y="410" as="sourcePoint"/>
                        <mxPoint x="660" y="671" as="targetPoint"/>
                        <Array as="points">
                            <mxPoint x="600" y="370"/>
                            <mxPoint x="600" y="760"/>
                        </Array>
                    </mxGeometry>
                </mxCell>
                <mxCell id="23" value="NO" style="edgeLabel;resizable=0;html=1;align=center;verticalAlign=middle;fontSize=16;" connectable="0" vertex="1" parent="22">
                    <mxGeometry relative="1" as="geometry"/>
                </mxCell>
                <mxCell id="24" value="Finish" style="rounded=1;whiteSpace=wrap;html=1;fontSize=16;fillColor=#a20025;fontColor=#ffffff;strokeColor=#6F0000;" vertex="1" parent="1">
                    <mxGeometry x="354" y="730" width="120" height="60" as="geometry"/>
                </mxCell>
            </root>
        </mxGraphModel>
    </diagram>
</mxfile>